<svg xmlns="http://www.w3.org/2000/svg" width="54" height="54" viewBox="0 0 54 54"><g transform="translate(-16 -16)"><path d="M98.147,368.451l.72,1.734a7.721,7.721,0,0,1,1.579-.465l-.336-1.848a9.613,9.613,0,0,0-1.963.578Z" transform="translate(-72.922 -312.361)"/><path d="M56.122,384.473l1.69.818a7.7,7.7,0,0,1,2.581-3l-1.06-1.55A9.582,9.582,0,0,0,56.122,384.473Z" transform="translate(-35.413 -323.867)"/><path d="M70,60.1a6.289,6.289,0,0,0-1.6-4.2l-1.341,1.2a4.49,4.49,0,0,1,1.056,2.1H61.9a.9.9,0,0,0-.749.4l-3.333,5H55.6V61.9a6.307,6.307,0,0,1,6.3-6.3h1.8a4.477,4.477,0,0,1,2.488.749l1-1.5a6.262,6.262,0,0,0-2.584-.986V51.1a.9.9,0,0,0-.9-.9,3.6,3.6,0,0,1-3.6-3.6V43h2.7a.9.9,0,0,0,.9-.9V35.8a.9.9,0,0,0-.9-.9H61.213a4.158,4.158,0,0,0-1.113.153V34a.9.9,0,0,0-.2-.562l-2.945-3.681a3.15,3.15,0,1,0-1.326,1.224L58.3,34.316v1.136l-3.957-1.319A2.426,2.426,0,0,0,53.538,34H46.114l-4.273-4.985A2.7,2.7,0,0,0,43,26.8v-.344l1.3-.651a.9.9,0,0,0,.346-1.3l-1.478-2.217A.9.9,0,0,0,43.9,21.4,5.406,5.406,0,0,0,38.5,16a5.714,5.714,0,0,0-4.431,1.777A5.41,5.41,0,0,0,32.7,21.937l.193,1.925A3.253,3.253,0,0,0,34,26.005V43a3.577,3.577,0,0,0,.484,1.8H33.1a2.687,2.687,0,0,0-.9.155V33.1a2.7,2.7,0,0,0-2.7-2.7H18.7A2.7,2.7,0,0,0,16,33.1v4.5h1.8V35.8H30.4v9H17.8V39.4H16v7.349a1.8,1.8,0,0,0,1.478,1.771L25.9,50.051v2.112a12.744,12.744,0,0,0-2.226.737H18.7a.9.9,0,0,0-.9.9v4.272A12.783,12.783,0,0,0,16,64.6a.9.9,0,0,0,.9.9h4.125a7.2,7.2,0,0,0,13.349,0H49.507a4.507,4.507,0,0,0,3.33-1.473l.963-1.06V65.5a.9.9,0,0,0,.9.9h1.865a7.2,7.2,0,0,0,13.142-5.636A.9.9,0,0,0,70,60.1ZM52.9,28.15a1.35,1.35,0,1,1,1.35,1.35A1.35,1.35,0,0,1,52.9,28.15ZM40.024,60.1A3.328,3.328,0,0,1,36.7,56.775a3.525,3.525,0,0,1,.812-2.39,3.334,3.334,0,0,1,2.042-1.114A4.013,4.013,0,0,0,43,49.3a.9.9,0,0,0-.264-.637,2.7,2.7,0,0,0,.109-2.063H45.29L41.34,56.868a2.09,2.09,0,0,0-.14.775V60.1ZM43,58.3h4.5a.9.9,0,0,1,.5,1.648,1.8,1.8,0,0,1-.717.152H43Zm6.984-.157a2.708,2.708,0,0,0-2.05-1.608l3.727-8.973A5.248,5.248,0,0,0,46.814,40.3H43V38.873l.264.264a.9.9,0,0,0,.636.264h9.155A2.7,2.7,0,0,0,55.6,43h0a4.476,4.476,0,0,0-.9,2.7v6.982a1.812,1.812,0,0,1-.527,1.273ZM55.6,41.2a.9.9,0,1,1,.9-.9.9.9,0,0,1-.9.9Zm6.3-4.5v4.5H60.1V36.98a2.366,2.366,0,0,1,1.113-.28Zm-3.6,3.6a2.7,2.7,0,0,0-3.6-2.545V36.149l3.6,1.2ZM45.7,35.8h7.2v1.8H44.273l-5.136-5.136-1.273,1.273L41.2,37.073V40.3H35.8V29.5h4.086l5.131,5.986A.9.9,0,0,0,45.7,35.8ZM35.4,18.984A3.932,3.932,0,0,1,38.5,17.8a3.607,3.607,0,0,1,3.486,2.7H38.5a.9.9,0,0,0-.9.9v2.137a1.462,1.462,0,0,1-2.917.146l-.193-1.925a3.558,3.558,0,0,1,.913-2.774Zm.734,7.816A3.266,3.266,0,0,0,39.4,23.537V22.3h1.8a.9.9,0,0,0,.151.5l1.234,1.852L41.7,25.1a.9.9,0,0,0-.5.8v.9a.9.9,0,0,1-.9.9H35.8v-.918A3.319,3.319,0,0,0,36.137,26.8ZM35.8,43v-.9H46.814A3.449,3.449,0,0,1,50,46.871L46,56.5H43.41l4.03-10.477A.9.9,0,0,0,46.6,44.8h-9A1.8,1.8,0,0,1,35.8,43Zm-2.7,3.6h7.2a.9.9,0,1,1,0,1.8H33.1a.9.9,0,1,1,0-1.8ZM17.8,34v-.9a.9.9,0,0,1,.9-.9H29.5a.9.9,0,0,1,.9.9V34Zm0,12.6H30.4v1.8H26.881L17.8,46.749Zm2.913,8.1A12.735,12.735,0,0,0,19.6,55.718V54.7ZM27.7,68.2a5.44,5.44,0,0,1-4.675-2.7h2.3a3.594,3.594,0,0,0,4.758,0h2.3A5.44,5.44,0,0,1,27.7,68.2Zm23.8-5.383a2.7,2.7,0,0,1-2,.883H17.837a10.962,10.962,0,0,1,8.648-9.823,3.37,3.37,0,0,1,.708-.077H33.1V52H27.7V50.2H41.009A2.214,2.214,0,0,1,39.3,51.49a5.136,5.136,0,0,0-3.147,1.716A5.334,5.334,0,0,0,34.9,56.775,5.1,5.1,0,0,0,36.129,60.1H28.6v1.8H47.282a3.665,3.665,0,0,0,2.546-1.054l5.618-5.618A3.625,3.625,0,0,0,56.5,52.682V45.7a2.7,2.7,0,0,1,1.8-2.546V46.6a5.409,5.409,0,0,0,4.5,5.325V53.8a13.069,13.069,0,0,0-1.686.039,8.117,8.117,0,0,0-7.1,6.216ZM62.382,61h.046l1.086,1.086a1.009,1.009,0,1,1-1.427,1.427l-.828-.828Zm.418,7.2a5.43,5.43,0,0,1-4.1-1.894A.9.9,0,0,0,59.049,66l.78-1.17A3.6,3.6,0,0,0,66.4,62.8a3.553,3.553,0,0,0-.348-1.541c-.042-.089-.088-.174-.137-.259h1.977A5.4,5.4,0,0,1,62.8,68.2Z"/><rect width="2" height="5" transform="translate(20 37.954)"/></g></svg>