<svg xmlns="http://www.w3.org/2000/svg" width="54" height="54" viewBox="0 0 54 54"><g transform="translate(40.916 32.066)"><path d="M391.984,312.115a4.038,4.038,0,1,1,4.038-4.038A4.044,4.044,0,0,1,391.984,312.115Zm0-5.967a1.929,1.929,0,1,0,1.929,1.929A1.932,1.932,0,0,0,391.984,306.147Z" transform="translate(-387.943 -304.038)"/></g><g transform="translate(0 0)"><path d="M19.1,18.045V10.606H36.783a6.011,6.011,0,1,1,0,12.022H29.516a1.055,1.055,0,0,0,0,2.109h7.268a8.121,8.121,0,1,0,0-16.241H19.1V1.055A1.055,1.055,0,0,0,18.045,0H1.055A1.055,1.055,0,0,0,0,1.055v16.99A1.055,1.055,0,0,0,1.055,19.1h16.99A1.055,1.055,0,0,0,19.1,18.045ZM7.571,2.109h3.957v4L10.1,5.227A1.055,1.055,0,0,0,9,5.227l-1.427.878v-4ZM16.99,16.99H2.109V2.109H5.462V7.994a1.055,1.055,0,0,0,1.608.9L9.551,7.364l2.478,1.528a1.055,1.055,0,0,0,1.608-.9V2.109H16.99V16.99Z" transform="translate(0 0)"/><path d="M87.579,237.668c2.158-2.835,4.153-5.554,4.111-9.645a8.8,8.8,0,0,0-17.6,0c-.041,4.091,1.954,6.81,4.113,9.645-2.128.595-3.588,1.578-4.126,2.774h-26.3a3.261,3.261,0,1,1,0-6.522H62.082a5.37,5.37,0,1,0,0-10.74H48.712a3.259,3.259,0,0,1,0-6.519h9.265a1.055,1.055,0,1,0,0-2.109H48.712a5.369,5.369,0,1,0,0,10.737h13.37a3.261,3.261,0,1,1,0,6.522H47.777a5.37,5.37,0,1,0,0,10.74h26.3a4.961,4.961,0,0,0,2.757,2.3,17.682,17.682,0,0,0,12.118,0c1.925-.813,2.985-2,2.985-3.356,0-1.667-1.629-3.067-4.353-3.828ZM76.2,228.039s0-.007,0-.011a6.693,6.693,0,1,1,13.386,0s0,.007,0,.011c.037,3.471-1.759,5.829-3.839,8.559-.217.285-2.332,2.806-2.332,2.806a.837.837,0,0,1-.521.338.874.874,0,0,1-.522-.336s-2.111-2.519-2.327-2.8c-2.083-2.732-3.882-5.091-3.845-8.565Zm6.695,15.775c-4.488,0-6.937-1.531-6.937-2.318,0-.536,1.18-1.5,3.7-2.009l1.118,1.3a2.778,2.778,0,0,0,2.112,1.067H82.9a2.776,2.776,0,0,0,2.11-1.068l1.119-1.3c2.518.508,3.7,1.473,3.7,2.009C89.823,242.283,87.376,243.814,82.89,243.814Z" transform="translate(-37.933 -191.923)"/><path d="M224.953,215.6a1.055,1.055,0,0,0,1.055,1.055h0a1.055,1.055,0,1,0-1.058-1.055Z" transform="translate(-201.227 -191.922)"/></g></svg>