<svg xmlns="http://www.w3.org/2000/svg" width="53" height="46.275" viewBox="0 0 53 46.275"><g transform="translate(0 -31.05)"><g transform="translate(0 31.05)"><path d="M258.975,263.75h-7.2a3.577,3.577,0,0,0-3.574,3.574v5.523a3.577,3.577,0,0,0,3.574,3.574h7.2a3.577,3.577,0,0,0,3.574-3.574v-5.523A3.577,3.577,0,0,0,258.975,263.75Zm.975,9.1a.978.978,0,0,1-.975.975h-7.2a.978.978,0,0,1-.975-.975v-5.523a.978.978,0,0,1,.975-.975h7.2a.977.977,0,0,1,.975.975Z" transform="translate(-221.321 -238.55)"/><path d="M53,46.211a1.206,1.206,0,0,0-.173-.639L44.943,31.711a1.306,1.306,0,0,0-1.126-.661H9.173a1.284,1.284,0,0,0-1.126.661L.173,45.572A1.314,1.314,0,0,0,0,46.211a7.6,7.6,0,0,0,4.548,6.953V76.025a1.3,1.3,0,0,0,1.3,1.3H47.141a1.3,1.3,0,0,0,1.3-1.3v-22.7a.572.572,0,0,0-.011-.141A7.623,7.623,0,0,0,53,46.211ZM9.931,33.66H43.058L49.22,44.5H3.78ZM37.719,47.089a4.995,4.995,0,0,1-9.833,0Zm-12.595,0a5,5,0,0,1-9.844,0Zm-22.439,0H12.53a5,5,0,0,1-9.844,0ZM21.832,74.726H14.36V60.7a1.851,1.851,0,0,1,1.852-1.852h3.78A1.851,1.851,0,0,1,21.843,60.7V74.726Zm24.009,0H24.432V60.7a4.458,4.458,0,0,0-4.451-4.451H16.2A4.458,4.458,0,0,0,11.75,60.7V74.737h-4.6V53.8c.152.011.3.011.455.011a7.593,7.593,0,0,0,6.3-3.357,7.6,7.6,0,0,0,12.606,0,7.575,7.575,0,0,0,12.584,0,7.593,7.593,0,0,0,6.3,3.357c.152,0,.292-.011.444-.011V74.726ZM45.4,51.215A4.992,4.992,0,0,1,40.481,47.1h9.844A5.023,5.023,0,0,1,45.4,51.215Z" transform="translate(0 -31.05)"/></g></g></svg>